# xmcd
#
# Track frame offsets:
#	150
#	3946
#	20207
#	49972
#	85867
#	109984
#	123715
#	158635
#	171337
#	224706
#	240388
#
# Disc length: 3457 seconds
# Revision: 0
# Processed by: cddbd v1.5.2PL0 Copyright (c) Steve Scherf et al.
# Submitted via: dBpowerAMP V12.0
#
DISCID=980d7f0b
DTITLE=Muddy Waters - Ames, Iowa  9-11-1981
DYEAR=9
DGENRE=
TTITLE0=Muddy Talking
TTITLE1=Hoochie Coochie Man
TTITLE2=My Home Is In The Delta
TTITLE3=Baby, You Don't Have To Go
TTITLE4=I'm A King Bee
TTITLE5=Baby, Please Don't Go
TTITLE6=Long Distance Call
TTITLE7=Trouble No More
TTITLE8=Goin' Down Slow
TTITLE9=Got My Mojo Workin'
TTITLE10=Mannish Boy
EXTD=
EXTT0=
EXTT1=
EXTT2=
EXTT3=
EXTT4=
EXTT5=
EXTT6=
EXTT7=
EXTT8=
EXTT9=
EXTT10=
PLAYORDER=
